<?xml version="1.0" encoding="utf-8"?>
<!-- Generator: Adobe Illustrator 26.0.3, SVG Export Plug-In . SVG Version: 6.00 Build 0)  -->
<svg version="1.1" id="Layer_1" xmlns="http://www.w3.org/2000/svg" xmlns:xlink="http://www.w3.org/1999/xlink" x="0px" y="0px"
	 viewBox="0 0 1470.6 1492.1" style="enable-background:new 0 0 1470.6 1492.1;" xml:space="preserve">
<style type="text/css">
	.st0{fill:#096735;}
	.st1{enable-background:new    ;}
	.st2{fill:#F4FF7D;}
</style>
<rect x="1" y="-1.5" class="st0" width="1468.6" height="1495.1"/>
<text transform="matrix(1.0039 0 0 1 -1397.03 499.9144)" class="st2" style="font-family:'Poppins-SemiBold'; font-size:155.2811px;">Baithaka</text>
<text transform="matrix(1.0039 0 0 1 -1056.5774 631.2044)" class="st2" style="font-family:'Poppins-SemiBold'; font-size:155.2811px;">GHAR</text>
<g>
	<g class="st1">
		<path class="st2" d="M240.8,1099.2c3.4,4.2,5.1,9.1,5.1,14.6c0,5-1.2,9.3-3.7,13.1c-2.4,3.8-6,6.7-10.6,8.8
			c-4.6,2.1-10.1,3.2-16.4,3.2H175v-92.7h38.4c6.3,0,11.8,1,16.3,3.1c4.6,2,8,4.9,10.4,8.5c2.4,3.6,3.5,7.7,3.5,12.4
			c0,5.4-1.4,9.9-4.3,13.5c-2.9,3.6-6.7,6.2-11.5,7.7C233.1,1092.3,237.4,1094.9,240.8,1099.2z M193.7,1084.5h17.1
			c4.4,0,7.9-1,10.3-3c2.4-2,3.6-4.8,3.6-8.6c0-3.7-1.2-6.6-3.6-8.6c-2.4-2-5.8-3.1-10.3-3.1h-17.1V1084.5z M223.1,1120.6
			c2.5-2.1,3.8-5.1,3.8-9c0-4-1.3-7.1-4-9.4c-2.7-2.3-6.3-3.4-10.8-3.4h-18.4v25h18.8C217,1123.8,220.6,1122.7,223.1,1120.6z"/>
		<path class="st2" d="M317.8,1121.2h-37.1l-6.1,17.7H255l33.5-92.8h21.7l33.5,92.8H324L317.8,1121.2z M312.8,1106.4l-13.5-38.8
			l-13.5,38.8H312.8z"/>
		<path class="st2" d="M374.9,1046.2v92.7h-18.7v-92.7H374.9z"/>
		<path class="st2" d="M456.6,1046.2v15h-24.8v77.7h-18.7v-77.7h-24.8v-15H456.6z"/>
		<path class="st2" d="M547.4,1046.2v92.7h-18.7v-39.4h-39.9v39.4h-18.7v-92.7h18.7v38.1h39.9v-38.1H547.4z"/>
		<path class="st2" d="M622.9,1121.2h-37.1l-6.1,17.7h-19.6l33.5-92.8h21.7l33.5,92.8H629L622.9,1121.2z M617.8,1106.4l-13.5-38.8
			l-13.5,38.8H617.8z"/>
		<path class="st2" d="M713.8,1138.9l-33.9-41.3v41.3h-18.7v-92.7H680v41.6l33.9-41.6h22.5l-38.4,46l39.5,46.8H713.8z"/>
		<path class="st2" d="M806.8,1121.2h-37.1l-6.1,17.7H744l33.5-92.8h21.7l33.5,92.8h-19.7L806.8,1121.2z M801.7,1106.4l-13.5-38.8
			l-13.5,38.8H801.7z"/>
	</g>
	<g class="st1">
		<path class="st2" d="M531,1186.4c-2.1-3.9-5.1-6.9-8.8-8.9c-3.7-2-8.1-3.1-13.1-3.1c-5.5,0-10.4,1.2-14.7,3.7
			c-4.3,2.5-7.6,6-10,10.6c-2.4,4.6-3.6,9.9-3.6,15.9c0,6.2,1.2,11.6,3.7,16.2c2.4,4.6,5.8,8.1,10.2,10.6c4.4,2.5,9.4,3.7,15.2,3.7
			c7.1,0,12.9-1.9,17.5-5.6c4.5-3.8,7.5-9,8.9-15.7h-32v-14.2h50.4v16.2c-1.2,6.5-3.9,12.4-8,17.9c-4.1,5.5-9.4,9.9-15.8,13.2
			c-6.4,3.3-13.7,5-21.7,5c-9,0-17.1-2-24.3-6c-7.2-4-12.9-9.6-17.1-16.8c-4.1-7.2-6.2-15.3-6.2-24.4c0-9.1,2.1-17.3,6.2-24.5
			c4.1-7.2,9.8-12.8,17.1-16.9c7.2-4,15.3-6,24.2-6c10.5,0,19.6,2.5,27.3,7.6c7.7,5.1,13.1,12.2,16,21.5H531z"/>
		<path class="st2" d="M645.8,1158.5v92.7h-18.7v-39.4h-39.9v39.4h-18.7v-92.7h18.7v38.1h39.9v-38.1H645.8z"/>
		<path class="st2" d="M721.3,1233.5h-37.1l-6.1,17.7h-19.6l33.5-92.8h21.7l33.5,92.8h-19.7L721.3,1233.5z M716.2,1218.7l-13.5-38.8
			l-13.5,38.8H716.2z"/>
		<path class="st2" d="M807.7,1251.2l-20.5-36.1h-8.8v36.1h-18.7v-92.7h34.9c7.2,0,13.3,1.3,18.4,3.8c5.1,2.5,8.9,5.9,11.4,10.2
			c2.5,4.3,3.8,9.1,3.8,14.4c0,6.1-1.8,11.6-5.3,16.5c-3.6,4.9-8.8,8.3-15.9,10.2l22.3,37.6H807.7z M778.4,1201.1H794
			c5.1,0,8.8-1.2,11.3-3.7c2.5-2.4,3.7-5.8,3.7-10.2c0-4.2-1.2-7.5-3.7-9.9c-2.5-2.3-6.3-3.5-11.3-3.5h-15.6V1201.1z"/>
	</g>
	<path class="st2" d="M604.6,1014.3c-119.8,0-217.3-97.5-217.3-217.3s97.5-217.3,217.3-217.3S821.9,677.2,821.9,797
		S724.4,1014.3,604.6,1014.3z M604.6,667.6c-71.4,0-129.4,58.1-129.4,129.4s58.1,129.4,129.4,129.4S734.1,868.4,734.1,797
		S676,667.6,604.6,667.6z"/>
	<rect x="373.7" y="240.8" class="st2" width="102.1" height="774"/>
	<path class="st2" d="M1080.2,1257.7c-125.5,0-221.4-102.1-221.4-227.5H961c0,65.7,53.5,119.2,119.2,119.2
		c65.7,0,119.2-53.5,119.2-119.2h108.3C1307.7,1155.6,1205.7,1257.7,1080.2,1257.7z"/>
	<g>
		<polygon class="st2" points="990.6,460.8 828.2,459.1 645.4,352.3 555.4,293.4 645.3,234.4 645.4,234.5 		"/>
		<polygon class="st2" points="690.3,322.9 645.4,352.3 330.2,554.5 156.9,554.5 555.4,293.4 645.3,234.4 645.4,234.4 645.4,234.5 
					"/>
	</g>
	<path class="st2" d="M1083.3,1013.7c-127.1,0-230.4-103.4-230.4-230.4s103.4-230.4,230.4-230.4s230.4,103.4,230.4,230.4
		S1210.4,1013.7,1083.3,1013.7z M1083.3,646c-75.7,0-137.3,61.6-137.3,137.3s61.6,137.3,137.3,137.3s137.3-61.6,137.3-137.3
		S1159,646,1083.3,646z"/>
</g>
</svg>
