<?xml version="1.0" encoding="UTF-8"?>
<svg id="Layer_1" xmlns="http://www.w3.org/2000/svg" version="1.1" viewBox="0 0 1470.64 1492.09">
  <!-- Generator: Adobe Illustrator 29.5.1, SVG Export Plug-In . SVG Version: 2.1.0 Build 141)  -->
  <defs>
    <style>
      .st0 {
        fill: #096735;
      }

      .st1 {
        font-family: Poppins-SemiBold, Poppins;
        font-size: 56.77px;
        font-weight: 600;
      }

      .st1, .st2 {
        fill: #f8f8d5;
      }
    </style>
  </defs>
  <rect class="st0" x=".61" y=".14" width="1469.66" height="1495.15"/>
  <text/>
  <text class="st1" transform="translate(499.68 905.24)"><tspan x="0" y="0">BAITHAKA</tspan><tspan x="123.99" y="48">GHAR</tspan></text>
  <path class="st2" d="M687.24,851.96c-51.21,0-92.87-41.66-92.87-92.87s41.66-92.87,92.87-92.87,92.87,41.66,92.87,92.87-41.66,92.87-92.87,92.87ZM687.24,703.76c-30.51,0-55.33,24.82-55.33,55.33s24.82,55.33,55.33,55.33,55.33-24.82,55.33-55.33-24.82-55.33-55.33-55.33Z"/>
  <rect class="st2" x="588.51" y="521.36" width="43.64" height="330.83"/>
  <path class="st2" d="M890.54,956.01c-53.62,0-94.63-43.62-94.63-97.25h43.68c0,28.1,22.86,50.95,50.95,50.95s50.95-22.86,50.95-50.95h46.29c0,53.62-43.62,97.25-97.25,97.25Z"/>
  <g>
    <polygon class="st2" points="852.22 615.4 782.79 614.64 704.65 569.03 666.21 543.81 704.64 518.63 704.66 518.64 852.22 615.4"/>
    <polygon class="st2" points="723.87 556.42 704.65 569.03 569.94 655.44 495.87 655.44 666.21 543.81 704.64 518.63 704.65 518.61 704.66 518.64 723.87 556.42"/>
  </g>
  <path class="st2" d="M891.85,851.73c-54.31,0-98.5-44.19-98.5-98.5s44.19-98.5,98.5-98.5,98.5,44.19,98.5,98.5-44.19,98.5-98.5,98.5ZM891.85,694.56c-32.35,0-58.68,26.32-58.68,58.68s26.32,58.68,58.68,58.68,58.68-26.32,58.68-58.68-26.32-58.68-58.68-58.68Z"/>
</svg>